# xmcd
#
# Track frame offsets: 
#        150
#        16042
#        23926
#        37825
#        48833
#        62059
#        78552
#        87149
#        101723
#        121533
#        138910
#        151521
#        171009
#        182770
#        195430
#        210469
#        226824
#        240855
#
# Disc length: 3458 seconds
#
# Revision: 0
# Processed by: cddbd v1.5.2PL0 Copyright (c) Steve Scherf et al.
# Submitted via: ExactAudioCopy v0.95a5
#
DISCID=c40d8012
DTITLE=Commander Cody and The Lost Planet Airmen - Central Park NYC
DYEAR=1974
DGENRE=Swing
TTITLE0=Announcements
TTITLE1=Armadillo Stomp
TTITLE2=Good Rockin' Tonight
TTITLE3=Everybody's Doin' It
TTITLE4=Truck Drivin' Man
TTITLE5=Seeds And Stems Again
TTITLE6=Mama Tried
TTITLE7=House Of Blue Lights
TTITLE8=Oh Mama Mama
TTITLE9=The Devil And Me
TTITLE10=Diggy Liggy Lo
TTITLE11=Beat Me Daddy Eight To The Bar
TTITLE12=Riot In Cell Block #9
TTITLE13=Hot Rod Lincoln
TTITLE14=Too Much Fun
TTITLE15=Jailhouse Rock
TTITLE16=Mean Woman Blues
TTITLE17=Lost In The Ozone Again
EXTD=
EXTT0=
EXTT1=
EXTT2=
EXTT3=
EXTT4=
EXTT5=
EXTT6=
EXTT7=
EXTT8=
EXTT9=
EXTT10=
EXTT11=
EXTT12=
EXTT13=
EXTT14=
EXTT15=
EXTT16=
EXTT17=
PLAYORDER=
